<?xml version="1.0" encoding="utf-8"?>
<!-- Generator: Adobe Illustrator 27.5.0, SVG Export Plug-In . SVG Version: 6.00 Build 0)  -->
<svg version="1.1" xmlns="http://www.w3.org/2000/svg" xmlns:xlink="http://www.w3.org/1999/xlink" x="0px" y="0px"
	 viewBox="0 0 500 500" style="enable-background:new 0 0 500 500;" xml:space="preserve">
<g id="Background_complete">
	<g>
		<g>
			<g>
				<g>
					<rect y="382.398" style="fill:#E6E6E6;" width="500" height="0.25"/>
					<rect x="72.444" y="391.886" style="fill:#E6E6E6;" width="34.404" height="0.25"/>
					<rect x="287.943" y="393.667" style="fill:#E6E6E6;" width="10.279" height="0.25"/>
					<rect x="117.296" y="395.448" style="fill:#E6E6E6;" width="19.359" height="0.25"/>
					<rect x="394.111" y="394.861" style="fill:#E6E6E6;" width="25.683" height="0.25"/>
					<rect x="359.06" y="391.306" style="fill:#E6E6E6;" width="17.541" height="0.25"/>
					<rect x="179.814" y="390.909" style="fill:#E6E6E6;" width="93.676" height="0.25"/>
					<path style="fill:#E6E6E6;" d="M237.014,337.8H43.915c-3.147,0-5.708-2.561-5.708-5.708V60.66c0-3.147,2.561-5.708,5.708-5.708
						h193.099c3.146,0,5.707,2.561,5.707,5.708v271.432C242.721,335.239,240.16,337.8,237.014,337.8z M43.915,55.203
						c-3.01,0-5.458,2.448-5.458,5.458v271.432c0,3.01,2.448,5.458,5.458,5.458h193.099c3.009,0,5.457-2.448,5.457-5.458V60.66
						c0-3.009-2.448-5.458-5.457-5.458H43.915z"/>
					<path style="fill:#E6E6E6;" d="M453.31,337.8H260.212c-3.146,0-5.707-2.561-5.707-5.708V60.66c0-3.147,2.561-5.708,5.707-5.708
						H453.31c3.148,0,5.708,2.561,5.708,5.708v271.432C459.019,335.239,456.458,337.8,453.31,337.8z M260.212,55.203
						c-3.009,0-5.457,2.448-5.457,5.458v271.432c0,3.01,2.448,5.458,5.457,5.458H453.31c3.01,0,5.458-2.448,5.458-5.458V60.66
						c0-3.009-2.448-5.458-5.458-5.458H260.212z"/>
				</g>
			</g>
		</g>
		<g>
			<g>
				<g>
					<path style="fill:#F0F0F0;" d="M343.822,284.61v0.007c-0.55,0-1.103,0.012-1.661,0.05c-11.73,0.8-21.214,10.336-21.962,22.069
						c-0.171,2.68,0.106,5.27,0.762,7.705c2.702,10.033,3.712,20.447,3.712,30.838v30.279c0,2.195,1.78,3.975,3.975,3.975h15.175
						h15.175h65.762V284.61H343.822z"/>
					<path style="fill:#FAFAFA;" d="M448.431,308.282c0-13.624-11.508-24.559-25.334-23.616c-11.73,0.8-21.214,10.336-21.962,22.069
						c-0.171,2.68,0.106,5.27,0.761,7.705c2.702,10.033,3.712,20.447,3.712,30.838v30.279c0,2.195,1.78,3.975,3.975,3.975h30.35
						c2.195,0,3.975-1.78,3.975-3.975V343.5c0-9.747,1.062-19.499,3.666-28.892C448.132,312.595,448.431,310.474,448.431,308.282z"
						/>
				</g>
				<rect x="223.13" y="321.899" style="fill:#F0F0F0;" width="169.008" height="57.633"/>
				<path style="fill:#E6E6E6;" d="M332.12,252.865H169.745c-9.895,0-17.916,8.021-17.916,17.916v64.148h198.207v-64.148
					C350.036,260.886,342.015,252.865,332.12,252.865z"/>
				<path style="fill:#FAFAFA;" d="M355.54,252.865H191.439c-9.418,0-17.053,7.635-17.053,17.053v65.011h198.207v-65.011
					C372.593,260.5,364.958,252.865,355.54,252.865z"/>
				<path style="fill:#E6E6E6;" d="M391.032,316.637H228.776c-0.858,0-1.553,0.695-1.553,1.553v20.365
					c0,0.858,0.695,1.553,1.553,1.553h162.256c2.872,0,5.2-2.328,5.2-5.199v-13.072
					C396.231,318.965,393.903,316.637,391.032,316.637z"/>
				<g>
					<path style="fill:#F0F0F0;" d="M143.322,284.61v0.007c-0.55,0-1.103,0.012-1.661,0.05c-11.73,0.8-21.214,10.336-21.962,22.069
						c-0.171,2.68,0.106,5.27,0.762,7.705c2.702,10.033,3.712,20.447,3.712,30.838v30.279c0,2.195,1.78,3.975,3.975,3.975h15.175
						h15.175h65.762V284.61H143.322z"/>
					<path style="fill:#FAFAFA;" d="M247.931,308.282c0-13.624-11.508-24.559-25.334-23.616c-11.73,0.8-21.214,10.336-21.962,22.069
						c-0.171,2.68,0.106,5.27,0.762,7.705c2.702,10.033,3.712,20.447,3.712,30.838v30.279c0,2.195,1.78,3.975,3.975,3.975h30.35
						c2.195,0,3.975-1.78,3.975-3.975V343.5c0-9.747,1.062-19.499,3.666-28.892C247.632,312.595,247.931,310.474,247.931,308.282z"
						/>
				</g>
				<path style="fill:#E0E0E0;" d="M423.069,382.414H145.011c-1.592,0-2.882-1.29-2.882-2.882l0,0h283.821l0,0
					C425.951,381.124,424.66,382.414,423.069,382.414z"/>
			</g>
			<g>
				<rect x="119.896" y="112.333" style="fill:#E0E0E0;" width="171.148" height="83.344"/>
				<rect x="125.618" y="112.333" style="fill:#F5F5F5;" width="173.648" height="83.344"/>
				
					<rect x="177.337" y="73.75" transform="matrix(-1.836970e-16 1 -1 -1.836970e-16 366.4471 -58.4359)" style="fill:#FFFFFF;" width="70.209" height="160.511"/>
				<path style="fill:#F5F5F5;" d="M148.005,160.279v-12.547c0-6.524,5.289-11.813,11.813-11.813h105.247
					c6.524,0,11.813,5.289,11.813,11.813v12.547c0,6.524-5.289,11.813-11.813,11.813H159.818
					C153.294,172.092,148.005,166.803,148.005,160.279z"/>
			</g>
			<g>
				<g>
					<rect x="332.008" y="162.889" style="fill:#E0E0E0;" width="40.765" height="42.245"/>
					<rect x="337.202" y="162.889" style="fill:#F5F5F5;" width="39.738" height="42.245"/>
					
						<rect x="339.278" y="167.471" transform="matrix(-1.836970e-16 1 -1 -1.836970e-16 541.0825 -173.06)" style="fill:#FFFFFF;" width="35.586" height="33.08"/>
					<polygon style="fill:#F5F5F5;" points="357.071,175.016 348.024,190.685 366.118,190.685 					"/>
				</g>
			</g>
			<g>
				<g>
					<rect x="386.341" y="135.199" style="fill:#E0E0E0;" width="40.765" height="42.244"/>
					<rect x="391.535" y="135.199" style="fill:#F5F5F5;" width="39.738" height="42.244"/>
					
						<rect x="393.611" y="139.781" transform="matrix(-1.836970e-16 1 -1 -1.836970e-16 567.7256 -255.0836)" style="fill:#FFFFFF;" width="35.586" height="33.08"/>
					<path style="fill:#F5F5F5;" d="M415.453,162.667l3.924-6.797c1.799-3.116-0.45-7.012-4.048-7.012h-7.848
						c-3.598,0-5.848,3.896-4.048,7.012l3.924,6.797C409.156,165.783,413.654,165.783,415.453,162.667z"/>
				</g>
			</g>
			<g>
				<rect x="35.052" y="308" style="fill:#E6E6E6;" width="22.565" height="69.965"/>
				<rect x="39.385" y="377.965" style="fill:#E6E6E6;" width="111.283" height="4.433"/>
				
					<rect x="57.617" y="308" transform="matrix(-1 -1.224647e-16 1.224647e-16 -1 212.6173 685.9652)" style="fill:#FAFAFA;" width="97.383" height="69.965"/>
				
					<rect x="66.489" y="316.612" transform="matrix(-1 -1.224647e-16 1.224647e-16 -1 212.6173 656.1694)" style="fill:#F0F0F0;" width="79.639" height="22.946"/>
				
					<rect x="66.489" y="346.407" transform="matrix(-1 -1.224647e-16 1.224647e-16 -1 212.6173 715.76)" style="fill:#F0F0F0;" width="79.639" height="22.946"/>
				<path style="fill:#FAFAFA;" d="M115.876,329.658H96.741c-0.865,0-1.573-0.708-1.573-1.573l0,0c0-0.865,0.708-1.573,1.573-1.573
					h19.136c0.865,0,1.573,0.708,1.573,1.573l0,0C117.45,328.95,116.742,329.658,115.876,329.658z"/>
				<path style="fill:#FAFAFA;" d="M115.876,359.453H96.741c-0.865,0-1.573-0.708-1.573-1.573l0,0c0-0.865,0.708-1.573,1.573-1.573
					h19.136c0.865,0,1.573,0.708,1.573,1.573l0,0C117.45,358.745,116.742,359.453,115.876,359.453z"/>
			</g>
			<g>
				<path style="fill:#FAFAFA;" d="M87.859,256.665h-6.511h-6.511c0.378,12.61-5.377,19.724-5.377,34.557
					c0,13.333,3.266,15.833,11.889,15.833s11.889-2.5,11.889-15.833C93.236,276.389,87.481,269.275,87.859,256.665z"/>
				<path style="fill:#F3F7FF;" d="M85.448,308h-8.201c-0.343,0-0.621-0.278-0.621-0.621v-0.795h9.444v0.795
					C86.069,307.722,85.791,308,85.448,308z"/>
				<rect x="66.028" y="261.264" style="fill:#E0E0E0;" width="1" height="19.125"/>
				<polygon style="fill:#EBEBEB;" points="102.014,267.278 60.681,267.278 67.767,224.921 94.927,224.921 				"/>
			</g>
		</g>
	</g>
</g>
<g id="Background_simple" style="display:none;">
	<g style="display:inline;">
		<path style="fill:#407BFF;" d="M461.551,229.735C469.688,66.988,59.602,30.378,39.45,208.546
			c-14.628,129.326,117.54,93.252,185.702,59.205c49.886-24.919,80.216-31.204,132.192-9.69
			C393.015,272.825,458.068,299.4,461.551,229.735z"/>
		<path style="opacity:0.9;fill:#FFFFFF;" d="M461.551,229.735C469.688,66.988,59.602,30.378,39.45,208.546
			c-14.628,129.326,117.54,93.252,185.702,59.205c49.886-24.919,80.216-31.204,132.192-9.69
			C393.015,272.825,458.068,299.4,461.551,229.735z"/>
	</g>
</g>
<g id="Shadow">
	<ellipse style="fill:#F5F5F5;" cx="250" cy="416.238" rx="193.889" ry="11.323"/>
</g>
<g id="Plant">
	<g>
		<g>
			<g>
				<path style="fill:#407BFF;" d="M242.351,386.617c-0.945-32.63-2.145-189.636-0.256-205.969l3.75-4.085
					c0,0-0.097,4.693-0.184,17.177c-0.391,55.899-1.84,184.572-1.526,192.878H242.351z"/>
				<path style="opacity:0.6;fill:#FFFFFF;" d="M242.351,386.617c-0.945-32.63-2.145-189.636-0.256-205.969l3.75-4.085
					c0,0-0.097,4.693-0.184,17.177c-0.391,55.899-1.84,184.572-1.526,192.878H242.351z"/>
			</g>
			<g>
				<path style="fill:#407BFF;" d="M257.655,293.799c10.917-10.867,22.831-18.592,31.463-22.811
					c8.633-4.219-14.003,23.343-22.854,33.614s-19.767,21.624-23.284,31.215C242.298,316.281,246.738,304.667,257.655,293.799z"/>
				<path style="opacity:0.6;fill:#FFFFFF;" d="M257.655,293.799c10.917-10.867,22.831-18.592,31.463-22.811
					c8.633-4.219-14.003,23.343-22.854,33.614s-19.767,21.624-23.284,31.215C242.298,316.281,246.738,304.667,257.655,293.799z"/>
			</g>
			<g>
				<path style="fill:#407BFF;" d="M242.913,210.391c-6.747-29.744-4.661-46.837,2.932-65.171c7.1-17.144,12.632-24.805,20.89-31.29
					c2.123-1.668-2.665,22.293-10.008,40.146c-5.181,12.599-7.743,29.011-11.332,38.439
					C242.913,199.038,242.913,210.391,242.913,210.391z"/>
				<path style="opacity:0.6;fill:#FFFFFF;" d="M242.913,210.391c-6.747-29.744-4.661-46.837,2.932-65.171
					c7.1-17.144,12.632-24.805,20.89-31.29c2.123-1.668-2.665,22.293-10.008,40.146c-5.181,12.599-7.743,29.011-11.332,38.439
					C242.913,199.038,242.913,210.391,242.913,210.391z"/>
			</g>
			<g>
				<path style="fill:#407BFF;" d="M243.268,275.562c-0.737-17.805-1.624-34.987,11.897-57.608
					c3.296-5.514,32.403-52.048,42.451-54.807c4.931-1.354-3.824,34.612-17.29,56.078c-10.096,16.094-14.756,20.351-25.805,39.132
					C250.167,265.758,243.268,275.562,243.268,275.562z"/>
				<path style="opacity:0.6;fill:#FFFFFF;" d="M243.268,275.562c-0.737-17.805-1.624-34.987,11.897-57.608
					c3.296-5.514,32.403-52.048,42.451-54.807c4.931-1.354-3.824,34.612-17.29,56.078c-10.096,16.094-14.756,20.351-25.805,39.132
					C250.167,265.758,243.268,275.562,243.268,275.562z"/>
			</g>
			<g>
				<path style="fill:#407BFF;" d="M225.893,202.054c-11.884-11.463-23.537-19.012-32.166-22.818
					c-8.629-3.805,14.09,24.7,25.01,37.088s20.913,23.113,25.188,34.137C242.689,226.849,237.777,213.517,225.893,202.054z"/>
				<path style="opacity:0.6;fill:#FFFFFF;" d="M225.893,202.054c-11.884-11.463-23.537-19.012-32.166-22.818
					c-8.629-3.805,14.09,24.7,25.01,37.088s20.913,23.113,25.188,34.137C242.689,226.849,237.777,213.517,225.893,202.054z"/>
			</g>
			<g>
				<path style="fill:#407BFF;" d="M243.925,309.319c-1.909-13.408-6.326-28.721-13.075-39.288
					c-6.749-10.567-17.136-26.765-25.735-31.134c-2.066-1.05,9.305,31.7,14.814,40.762c6.483,10.663,11.929,15.94,16.311,20.393
					C237.697,301.533,243.925,309.319,243.925,309.319z"/>
				<path style="opacity:0.6;fill:#FFFFFF;" d="M243.925,309.319c-1.909-13.408-6.326-28.721-13.075-39.288
					c-6.749-10.567-17.136-26.765-25.735-31.134c-2.066-1.05,9.305,31.7,14.814,40.762c6.483,10.663,11.929,15.94,16.311,20.393
					C237.697,301.533,243.925,309.319,243.925,309.319z"/>
			</g>
		</g>
		<g>
			<g>
				<polygon style="fill:#407BFF;" points="258.375,395.079 228.143,395.079 225.862,362.497 260.656,362.497 				"/>
				<polygon style="fill:#407BFF;" points="262.909,367.99 223.609,367.99 222.483,359.504 264.035,359.504 				"/>
			</g>
			<g style="opacity:0.4;">
				<polygon points="258.375,395.079 228.143,395.079 225.862,362.497 260.656,362.497 				"/>
				<polygon points="262.909,367.99 223.609,367.99 222.483,359.504 264.035,359.504 				"/>
			</g>
		</g>
	</g>
</g>
<g id="Character">
	<g>
		<path style="fill:#263238;" d="M291.082,273.322c-9.301,1.671-39.638-17.211-49.909-29.644
			c10.601-8.864,19.496-20.233,20.159-21.086c-6.664,7.632-17.359,14.401-23.717,18.043c-2.863-2.474-4.548-4.032-4.548-4.032
			s26.002-8.716,39.824-39.339c10.527-23.317,25.832-35.82,41.96-23.842C346.333,181.111,312.989,263.732,291.082,273.322z"/>
		<path style="fill:#E4897B;" d="M300.447,222.992c-0.246,0.369-0.4,0.584-0.594,0.849l-0.555,0.738
			c-0.374,0.484-0.761,0.932-1.15,1.386c-0.785,0.891-1.586,1.76-2.43,2.578c-1.689,1.637-3.506,3.124-5.398,4.505
			c-1.905,1.365-3.921,2.57-6.003,3.64c-1.054,0.51-2.106,1.025-3.195,1.454l-1.634,0.639l-0.428,0.165
			c-0.258,0.085-0.481,0.168-0.773,0.236c-0.557,0.135-1.23,0.229-2.006,0.153c-0.784-0.08-1.63-0.368-2.319-0.826
			c-0.673-0.456-1.151-0.996-1.497-1.504c-0.65-1.003-0.887-1.85-1.07-2.606c-0.327-1.504-0.35-2.756-0.344-3.984
			c0.061-2.43,0.364-4.673,0.758-6.89c0.408-2.209,0.895-4.372,1.43-6.515c0.58-2.139,1.161-4.24,1.89-6.356l3.746,0.908
			c-0.265,2.094-0.56,4.232-0.769,6.347c-0.25,2.112-0.449,4.223-0.565,6.309c-0.113,2.077-0.192,4.155-0.05,6.054
			c0.063,0.931,0.196,1.853,0.397,2.45c0.089,0.287,0.225,0.474,0.184,0.369c-0.029-0.069-0.131-0.214-0.355-0.364
			c-0.229-0.17-0.551-0.286-0.798-0.308c-0.236-0.033-0.365-0.006-0.4-0.008c-0.028,0.008-0.001-0.013-0.001-0.013l0.318-0.152
			l1.348-0.642c0.896-0.43,1.757-0.934,2.629-1.405c1.715-1.005,3.354-2.128,4.946-3.312c1.57-1.214,3.058-2.533,4.453-3.931
			c0.713-0.684,1.379-1.409,2.025-2.138c0.316-0.366,0.634-0.738,0.927-1.107l0.438-0.545l0.355-0.467L300.447,222.992z"/>
		<path style="fill:#E4897B;" d="M278.55,212.482l3.231-5.797l-7.939,0.482c0,0-0.497,3.766,1.681,6.06L278.55,212.482z"/>
		<g>
			<path style="fill:#407BFF;" d="M302.496,213.392c-7.832,0.312-13.801,7.761-13.801,7.761l10.029,12.597
				c0,0,7.494-7.559,8.175-11.712C307.608,217.712,307.216,213.204,302.496,213.392z"/>
			<path style="opacity:0.3;" d="M302.496,213.392c-7.832,0.312-13.801,7.761-13.801,7.761l10.029,12.597
				c0,0,7.494-7.559,8.175-11.712C307.608,217.712,307.216,213.204,302.496,213.392z"/>
		</g>
		<polygon style="fill:#E4897B;" points="280.304,203.205 274.477,204.663 273.842,207.167 281.781,206.685 		"/>
		<polygon style="fill:#E4897B;" points="279.752,196.252 280.778,196.786 280.312,204.077 278.013,204.236 		"/>
		<polygon style="fill:#E4897B;" points="278.001,195.966 276.985,196.21 276.026,204.954 278.296,204.371 		"/>
		<g>
			<path style="fill:#407BFF;" d="M295.23,215.758c0,0-3.072,2.311,17.324,42.7c11.695-3.7,23.781-7.524,29.472-9.324
				c-4.29-11.838-6.644-19.23-8.699-45.66c0,0-6.6,0.61-13.037,2.311c-5.035,1.33-9.148,2.457-13.383,4.235
				C301.327,212.362,295.23,215.758,295.23,215.758z"/>
			<path style="opacity:0.3;" d="M295.23,215.758c0,0-3.072,2.311,17.324,42.7c11.695-3.7,23.781-7.524,29.472-9.324
				c-4.29-11.838-6.644-19.23-8.699-45.66c0,0-6.6,0.61-13.037,2.311c-5.035,1.33-9.148,2.457-13.383,4.235
				C301.327,212.362,295.23,215.758,295.23,215.758z"/>
		</g>
		<polygon style="fill:#E4897B;" points="364.091,407.925 356.739,408.644 349.089,391.145 356.441,390.426 		"/>
		<polygon style="fill:#CE6F64;" points="349.092,391.15 353.034,400.17 360.704,400.17 356.448,390.431 		"/>
		<polygon style="fill:#E4897B;" points="430.414,371.812 426.221,378.165 410.163,370.498 414.355,364.146 		"/>
		<polygon style="fill:#CE6F64;" points="414.361,364.146 410.166,370.501 418.446,374.45 422.64,368.095 		"/>
		<g>
			<g>
				<path style="fill:#407BFF;" d="M312.555,258.458c0,0-1.486,60.732,5.991,82.711c7.777,22.861,30.666,56.376,30.666,56.376
					l14.265-0.69c0,0-20.581-42.12-22.892-60.309c-3.186-25.075-6.448-84.917-6.448-84.917L312.555,258.458z"/>
				<path style="opacity:0.6;" d="M312.555,258.458c0,0-1.486,60.732,5.991,82.711c7.777,22.861,30.666,56.376,30.666,56.376
					l14.265-0.69c0,0-20.581-42.12-22.892-60.309c-3.186-25.075-6.448-84.917-6.448-84.917L312.555,258.458z"/>
			</g>
			<path style="opacity:0.3;" d="M336.58,290.74l-10.5-23.99c0,0,1.21,27.67,11.28,34.79C337.09,297.93,336.83,294.3,336.58,290.74z
				"/>
			<g>
				<path style="fill:#407BFF;" d="M320.338,255.996c0,0,19.969,48.473,33.219,75.16c10.702,21.555,61.8,43.698,61.8,43.698
					l5.365-9.007c0,0-39.089-24.8-46.478-39.417c-23.652-46.787-18.614-67.13-32.216-77.296L320.338,255.996z"/>
				<path style="opacity:0.6;" d="M320.338,255.996c0,0,19.969,48.473,33.219,75.16c10.702,21.555,61.8,43.698,61.8,43.698
					l5.365-9.007c0,0-39.089-24.8-46.478-39.417c-23.652-46.787-18.614-67.13-32.216-77.296L320.338,255.996z"/>
			</g>
		</g>
		<path style="fill:#263238;" d="M424.453,377.48l0.551-8.533c0.02-0.311,0.252-0.549,0.558-0.573l6.814-0.536
			c0.707-0.056,1.331,0.589,1.272,1.305c-0.243,2.972-0.51,4.394-0.753,8.147c-0.149,2.309-0.139,7.437-0.345,10.625
			c-0.201,3.118-3.369,3.154-3.569,1.808c-0.896-6.035-2.588-8.829-4.143-10.943C424.557,378.399,424.423,377.935,424.453,377.48z"
			/>
		<path style="fill:#263238;" d="M355.763,406.372h9.029c0.328,0,0.625,0.228,0.713,0.549l1.963,7.144
			c0.204,0.741-0.342,1.442-1.102,1.429c-3.155-0.054-4.696-0.239-8.667-0.239c-2.443,0-8.757,0.254-12.13,0.254
			c-3.299,0-3.99-3.336-2.624-3.638c6.121-1.355,9.65-3.223,11.538-5.005C354.825,406.545,355.282,406.372,355.763,406.372z"/>
		<path style="fill:#E4897B;" d="M314.198,191.135c0.518,4.573,2.172,12.729,6.094,14.649c0,0,0.205,4.74-7.796,7.272
			c-8.798,2.784-5.586-3.037-5.586-3.037c4.439-2.666,3.188-6.189,1.293-9.27L314.198,191.135z"/>
		<path style="fill:#E4897B;" d="M299.308,213.596c2.178-1.113,4.95-2.464,7.601-3.58c4.236-1.781,8.353-2.904,13.385-4.235
			c2.575-0.684,5.172-1.195,7.363-1.546c0.475,1.45,1.987,11.922-13.635,15.794C300.317,223.427,298.589,215.865,299.308,213.596z"
			/>
		<g>
			<path style="fill:#F0F0F0;" d="M306.34,210.31c-0.13,0-0.26-0.05-0.36-0.14c-0.09-0.1-0.14-0.22-0.14-0.36
				c0-0.13,0.05-0.26,0.14-0.35c0.19-0.18,0.521-0.19,0.71,0c0.091,0.09,0.15,0.22,0.15,0.35c0,0.14-0.06,0.26-0.15,0.36
				C306.6,210.26,306.47,210.31,306.34,210.31z"/>
			<path style="fill:#F0F0F0;" d="M309.8,216.28c-0.28-0.04-0.48-0.28-0.45-0.56l0,0c0.03-0.27,0.28-0.47,0.55-0.44l0,0l0,0l0,0
				c0.28,0.03,0.48,0.28,0.45,0.55l0,0c-0.03,0.26-0.25,0.45-0.5,0.45l0,0C309.83,216.28,309.81,216.28,309.8,216.28z M311.35,215.8
				c-0.03-0.27,0.16-0.52,0.44-0.56l0,0c0.27-0.03,0.52,0.17,0.55,0.44l0,0c0.04,0.28-0.16,0.53-0.44,0.56l0,0
				c-0.01,0-0.04,0-0.05,0l0,0C311.6,216.24,311.38,216.05,311.35,215.8z M313.33,215.5c-0.07-0.27,0.09-0.54,0.35-0.61l0,0
				c0.271-0.07,0.55,0.09,0.61,0.36l0,0c0.069,0.26-0.09,0.54-0.351,0.61l0,0c-0.04,0.01-0.09,0.01-0.13,0.01l0,0
				C313.59,215.87,313.39,215.72,313.33,215.5z M307.7,215.62c-0.24-0.14-0.32-0.44-0.181-0.68l0,0c0.141-0.24,0.45-0.32,0.69-0.18
				l0,0c0.24,0.14,0.31,0.45,0.17,0.69l0,0c-0.09,0.16-0.26,0.24-0.43,0.24l0,0C307.87,215.69,307.78,215.67,307.7,215.62z
				 M315.24,214.92c-0.11-0.25,0-0.55,0.26-0.66l0,0l0,0l0,0c0.25-0.11,0.54,0,0.66,0.26l0,0c0.109,0.25-0.011,0.54-0.261,0.66l0,0
				c-0.06,0.03-0.13,0.04-0.199,0.04l0,0C315.51,215.22,315.319,215.11,315.24,214.92z M317.03,214.03
				c-0.16-0.23-0.101-0.54,0.13-0.7l0,0c0.22-0.15,0.529-0.1,0.689,0.13l0,0c0.16,0.23,0.101,0.54-0.12,0.69l0,0
				c-0.09,0.06-0.189,0.09-0.29,0.09l0,0C317.28,214.24,317.13,214.17,317.03,214.03z M306.18,213.96h-0.01
				c-0.12-0.25-0.01-0.55,0.24-0.67l0,0c0.239-0.12,0.54-0.02,0.659,0.23l0,0c0.12,0.25,0.021,0.54-0.229,0.67l0,0
				c-0.07,0.03-0.14,0.05-0.21,0.05l0,0C306.439,214.24,306.26,214.13,306.18,213.96z M318.609,212.8c-0.199-0.18-0.21-0.5-0.02-0.7
				l0,0c0.19-0.21,0.5-0.22,0.7-0.03l0,0c0.21,0.19,0.22,0.51,0.029,0.71l0,0c-0.1,0.11-0.239,0.16-0.369,0.16l0,0
				C318.83,212.94,318.71,212.89,318.609,212.8z M305.67,211.83c-0.021-0.28,0.189-0.51,0.47-0.53l0,0c0.28-0.01,0.51,0.2,0.53,0.48
				l0,0c0.01,0.27-0.2,0.51-0.48,0.52l0,0c-0.01,0-0.02,0-0.02,0l0,0C305.899,212.3,305.68,212.09,305.67,211.83z M319.899,211.27
				c-0.239-0.14-0.31-0.45-0.17-0.69l0,0c0.15-0.23,0.45-0.3,0.69-0.16l0,0c0.229,0.14,0.31,0.45,0.17,0.69l0,0
				c-0.1,0.15-0.26,0.24-0.43,0.24l0,0C320.069,211.35,319.979,211.32,319.899,211.27z M320.859,209.51
				c-0.26-0.09-0.39-0.38-0.29-0.64l0,0c0.091-0.26,0.381-0.39,0.641-0.29l0,0c0.26,0.1,0.39,0.39,0.29,0.65l0,0
				c-0.07,0.2-0.26,0.32-0.47,0.32l0,0C320.979,209.55,320.92,209.54,320.859,209.51z M321.49,207.62
				c-0.27-0.059-0.44-0.33-0.391-0.6l0,0l0,0l0,0c0.061-0.27,0.32-0.44,0.601-0.38l0,0c0.27,0.05,0.439,0.32,0.38,0.59l0,0
				c-0.05,0.23-0.261,0.4-0.49,0.4l0,0C321.56,207.63,321.52,207.62,321.49,207.62z"/>
			<path style="fill:#F0F0F0;" d="M321.89,205.61c-0.13,0-0.26-0.05-0.359-0.14c-0.091-0.1-0.141-0.23-0.141-0.36
				c0-0.13,0.05-0.26,0.141-0.35c0.05-0.05,0.1-0.08,0.159-0.11c0.19-0.07,0.41-0.03,0.551,0.11c0.09,0.09,0.149,0.22,0.149,0.35
				c0,0.13-0.06,0.26-0.149,0.36c-0.051,0.04-0.101,0.08-0.16,0.1C322.01,205.6,321.95,205.61,321.89,205.61z"/>
		</g>
		<path style="fill:#CE6F64;" d="M311.754,195.057l-3.55,5.687c0.451,0.728,0.861,1.482,1.164,2.245
			c1.75-0.846,3.995-3.363,3.582-5.346C312.744,196.654,312.051,195.453,311.754,195.057z"/>
		<path style="fill:#E4897B;" d="M312.117,180.946c2.517,7.122,3.734,10.083,1.738,15.132c-3.002,7.595-12.3,9.128-16.894,2.901
			c-4.135-5.605-7.555-16.311-1.932-21.953C300.57,171.467,309.6,173.824,312.117,180.946z"/>
		<path style="fill:#263238;" d="M301.741,173.423c-1.567,2.412,4.815,16.417,14.19,13.625c4.688-1.396,3.106-4.528,0.352-7.311
			c-3.29-3.325-7.668-5.355-12.301-6.002L301.741,173.423z"/>
		<path style="fill:#263238;" d="M302.104,173.822c-2.763-0.275-11.931,1.415-11.536,10.733c0,0,3.816-3.421,14.431-4.01
			L302.104,173.822z"/>
		<path style="fill:#E4897B;" d="M315.85,186.753c0.466,1.495,0.199,3.066-0.417,4.196c-0.927,1.7-2.772,1.205-3.672-0.393
			c-0.81-1.439-1.304-4.056,0.182-5.221C313.408,184.188,315.317,185.044,315.85,186.753z"/>
		<path style="fill:#407BFF;" d="M341.921,247.265l2.164,2.218c0.168,0.172-0.008,0.457-0.349,0.565l-30.908,9.779
			c-0.266,0.084-0.527,0.024-0.597-0.138l-1.1-2.554c-0.076-0.177,0.105-0.405,0.396-0.497l29.844-9.442
			C341.59,247.126,341.813,247.154,341.921,247.265z"/>
		<path style="fill:#263238;" d="M302.41,187.35c0.24,0.565,0.134,1.15-0.235,1.307c-0.369,0.157-0.863-0.175-1.103-0.74
			s-0.134-1.15,0.235-1.307C301.677,186.454,302.171,186.785,302.41,187.35z"/>
		<path style="fill:#263238;" d="M296.021,190.059c0.24,0.565,0.134,1.15-0.235,1.307c-0.369,0.157-0.863-0.175-1.103-0.74
			s-0.134-1.15,0.235-1.307C295.288,189.162,295.782,189.493,296.021,190.059z"/>
		<path style="fill:#263238;" d="M295.095,189.281l-1.523,0.184C293.572,189.465,294.718,190.23,295.095,189.281z"/>
		<path style="fill:#DE5753;" d="M298.122,190.314c0,0,0.073,2.84-0.486,4.462c1.041,0.38,2.175-0.476,2.175-0.476L298.122,190.314z
			"/>
		<path style="fill:#263238;" d="M302.674,195.696c-0.07,0-0.137-0.041-0.166-0.11c-0.039-0.092,0.004-0.197,0.096-0.236
			c2.482-1.052,2.904-3.275,2.908-3.298c0.018-0.098,0.112-0.163,0.209-0.146c0.099,0.017,0.164,0.111,0.146,0.209
			c-0.018,0.099-0.463,2.438-3.123,3.566C302.722,195.692,302.697,195.696,302.674,195.696z"/>
		<path style="fill:#263238;" d="M303.321,184.502c-0.061,0-0.123-0.015-0.18-0.048c-1.393-0.801-2.584-0.212-2.596-0.206
			c-0.176,0.09-0.395,0.021-0.485-0.158c-0.091-0.177-0.02-0.395,0.157-0.485c0.064-0.032,1.555-0.771,3.283,0.224
			c0.173,0.099,0.232,0.32,0.133,0.492C303.567,184.438,303.445,184.502,303.321,184.502z"/>
		<path style="fill:#263238;" d="M291.732,188.373c-0.022,0-0.044-0.002-0.066-0.006c-0.196-0.037-0.325-0.226-0.288-0.421
			c0.37-1.96,1.901-2.612,1.966-2.639c0.184-0.075,0.396,0.012,0.471,0.196c0.076,0.184-0.011,0.394-0.194,0.47
			c-0.058,0.025-1.239,0.547-1.533,2.106C292.054,188.252,291.902,188.373,291.732,188.373z"/>
		<path style="fill:#E4897B;" d="M339.012,210.279c0.721,0.847,1.594,1.816,2.417,2.721c0.846,0.912,1.709,1.813,2.592,2.693
			c1.749,1.777,3.552,3.505,5.439,5.113c1.897,1.593,3.795,3.182,5.801,4.584c0.492,0.37,1.01,0.681,1.514,1.027
			c0.505,0.343,1.015,0.677,1.538,0.975c0.508,0.296,1.065,0.649,1.532,0.901l0.645,0.327l0.698,0.282
			c0.959,0.346,2.005,0.63,3.108,0.822c1.112,0.178,2.27,0.279,3.45,0.325c2.373,0.088,4.824-0.088,7.294-0.373
			c2.471-0.288,4.955-0.735,7.426-1.285c2.471-0.512,4.974-1.176,7.358-1.864l1.438,3.576c-2.469,1.194-4.925,2.129-7.461,3.037
			c-2.541,0.85-5.129,1.6-7.788,2.194c-2.659,0.599-5.397,0.986-8.231,1.125c-2.834,0.082-5.798-0.07-8.832-1.022l-1.132-0.398
			l-1.124-0.498c-0.694-0.333-1.255-0.648-1.89-0.975c-0.625-0.315-1.224-0.662-1.817-1.018c-0.591-0.358-1.206-0.69-1.777-1.071
			c-2.338-1.468-4.56-3.072-6.669-4.8c-2.115-1.72-4.132-3.537-6.067-5.435c-0.958-0.958-1.895-1.938-2.816-2.936
			c-0.933-1.016-1.79-1.992-2.719-3.158L339.012,210.279z"/>
		<path style="fill:#407BFF;" d="M424.438,381.855c-0.093,0-0.189-0.011-0.291-0.031c-0.301-0.063-0.429-0.247-0.482-0.391
			c-0.343-0.909,1.294-3.12,1.482-3.369c0.043-0.059,0.114-0.086,0.187-0.067c0.069,0.017,0.123,0.073,0.135,0.145
			c0.169,0.998,0.35,2.773-0.347,3.445C424.938,381.766,424.708,381.855,424.438,381.855z M425.179,378.636
			c-0.629,0.903-1.356,2.191-1.177,2.671c0.022,0.06,0.068,0.133,0.219,0.164c0.279,0.061,0.492,0.011,0.651-0.143
			C425.248,380.966,425.357,379.975,425.179,378.636z"/>
		<path style="fill:#407BFF;" d="M422.63,380.045c-0.078,0-0.15-0.009-0.219-0.026c-0.161-0.044-0.436-0.185-0.462-0.639
			c-0.017-0.287,0.081-0.538,0.289-0.745c0.783-0.778,2.973-0.648,3.064-0.642c0.064,0.004,0.121,0.042,0.149,0.1
			c0.029,0.057,0.025,0.125-0.011,0.179C425.02,378.914,423.523,380.045,422.63,380.045z M424.869,378.341
			c-0.736,0-1.922,0.098-2.377,0.55c-0.134,0.133-0.193,0.286-0.184,0.47c0.014,0.231,0.112,0.287,0.196,0.309
			c0.512,0.136,1.801-0.643,2.424-1.328C424.909,378.341,424.89,378.341,424.869,378.341z"/>
		<path style="fill:#407BFF;" d="M351.758,407.863c-0.697,0-1.348-0.108-1.763-0.422c-0.283-0.215-0.438-0.506-0.458-0.867
			c-0.016-0.27,0.114-0.416,0.227-0.491c0.823-0.557,3.894,0.841,4.502,1.127c0.07,0.032,0.111,0.106,0.103,0.183
			c-0.008,0.077-0.065,0.14-0.14,0.156C353.573,407.695,352.628,407.863,351.758,407.863z M350.32,406.305
			c-0.155,0-0.276,0.023-0.354,0.077c-0.038,0.025-0.075,0.065-0.069,0.172c0.015,0.254,0.118,0.45,0.316,0.6
			c0.709,0.536,2.407,0.333,3.392,0.153C352.495,406.824,351.045,406.305,350.32,406.305z"/>
		<path style="fill:#407BFF;" d="M354.189,407.554c-0.023,0-0.046-0.005-0.068-0.014c-1.02-0.417-3.074-2.064-2.959-2.916
			c0.025-0.186,0.152-0.42,0.617-0.476c1.788-0.225,2.555,3.045,2.586,3.185c0.015,0.065-0.008,0.134-0.059,0.178
			C354.272,407.539,354.231,407.554,354.189,407.554z M351.944,404.499c-0.04,0-0.081,0.002-0.122,0.007
			c-0.19,0.022-0.291,0.079-0.303,0.167c-0.067,0.494,1.353,1.795,2.392,2.365C353.674,406.251,353.024,404.499,351.944,404.499z"/>
		<path style="fill:#E4897B;" d="M391.667,225.108l-2.155-5.342l-3.622,6.84c0,0,2.222,3.775,5.374,3.495l0.487-1.388
			C392.161,227.541,392.132,226.26,391.667,225.108z"/>
		<path style="fill:#263238;" d="M301.484,186.572l-1.523,0.184C299.96,186.757,301.106,187.522,301.484,186.572z"/>
		<g>
			<polygon style="fill:#407BFF;" points="364.493,397.28 347.465,398.178 345,393.458 363.477,392.849 			"/>
			<polygon style="opacity:0.7;fill:#FFFFFF;" points="364.493,397.28 347.465,398.178 345,393.458 363.477,392.849 			"/>
		</g>
		<g>
			<polygon style="fill:#407BFF;" points="421.947,364.667 415.077,375.936 411.458,375.188 417.897,361.964 			"/>
			<polygon style="opacity:0.7;fill:#FFFFFF;" points="421.947,364.667 415.077,375.936 411.458,375.188 417.897,361.964 			"/>
		</g>
		<g>
			<path style="fill:#407BFF;" d="M338.968,251.87l0.799-0.253c0.159-0.05,0.255-0.171,0.212-0.268l-1.459-3.309
				c-0.043-0.097-0.208-0.135-0.367-0.085l-0.799,0.253c-0.159,0.05-0.255,0.171-0.212,0.268l1.459,3.309
				C338.644,251.882,338.809,251.92,338.968,251.87z"/>
			<path style="fill:#407BFF;" d="M315.164,259.401l0.799-0.253c0.159-0.05,0.254-0.171,0.212-0.268l-1.459-3.309
				c-0.043-0.097-0.208-0.135-0.367-0.085l-0.799,0.253c-0.159,0.05-0.254,0.171-0.212,0.268l1.459,3.309
				C314.84,259.413,315.005,259.451,315.164,259.401z"/>
			<path style="fill:#407BFF;" d="M327.066,255.635l0.799-0.253c0.159-0.05,0.254-0.171,0.212-0.268l-1.459-3.309
				c-0.043-0.097-0.208-0.135-0.367-0.085l-0.799,0.253c-0.159,0.05-0.254,0.171-0.212,0.268l1.459,3.309
				C326.742,255.648,326.907,255.686,327.066,255.635z"/>
			<path style="opacity:0.6;" d="M338.968,251.87l0.799-0.253c0.159-0.05,0.255-0.171,0.212-0.268l-1.459-3.309
				c-0.043-0.097-0.208-0.135-0.367-0.085l-0.799,0.253c-0.159,0.05-0.255,0.171-0.212,0.268l1.459,3.309
				C338.644,251.882,338.809,251.92,338.968,251.87z"/>
			<path style="opacity:0.6;" d="M315.164,259.401l0.799-0.253c0.159-0.05,0.254-0.171,0.212-0.268l-1.459-3.309
				c-0.043-0.097-0.208-0.135-0.367-0.085l-0.799,0.253c-0.159,0.05-0.254,0.171-0.212,0.268l1.459,3.309
				C314.84,259.413,315.005,259.451,315.164,259.401z"/>
			<path style="opacity:0.6;" d="M327.066,255.635l0.799-0.253c0.159-0.05,0.254-0.171,0.212-0.268l-1.459-3.309
				c-0.043-0.097-0.208-0.135-0.367-0.085l-0.799,0.253c-0.159,0.05-0.254,0.171-0.212,0.268l1.459,3.309
				C326.742,255.648,326.907,255.686,327.066,255.635z"/>
		</g>
		<g>
			<path style="fill:#407BFF;" d="M333.328,203.473c3.237-0.036,10,9.009,10,9.009l-8.864,11.815c0,0-5.663-7.375-5.63-11.584
				C328.868,208.329,329.634,203.515,333.328,203.473z"/>
			<path style="opacity:0.3;" d="M333.328,203.473c3.237-0.036,10,9.009,10,9.009l-8.864,11.815c0,0-5.663-7.375-5.63-11.584
				C328.868,208.329,329.634,203.515,333.328,203.473z"/>
		</g>
	</g>
	<g>
		<g>
			<path style="fill:#407BFF;" d="M214.67,142.919v241.99h148.9v-241.99H214.67z M350.65,375.219H218.82v-222.61h131.83V375.219z"/>
			<path style="opacity:0.6;fill:#FFFFFF;" d="M214.67,142.919v241.99h148.9v-241.99H214.67z M350.65,375.219H218.82v-222.61h131.83
				V375.219z"/>
		</g>
		<rect x="217.43" y="152.609" style="fill:#FFFFFF;" width="1.39" height="222.61"/>
		<rect x="217.43" y="152.609" style="fill:#F0F0F0;" width="1.39" height="222.61"/>
		<g>
			<g>
				<g>
					<path style="fill:#407BFF;" d="M379.18,86.269H110.43c-4.82,0-8.77,3.94-8.77,8.76v311.72c0,4.82,3.95,8.76,8.77,8.76h268.75
						c4.82,0,8.76-3.94,8.76-8.76V95.029C387.94,90.209,384,86.269,379.18,86.269z M218.82,152.609h131.83v222.61H218.82V152.609z"
						/>
					<path style="opacity:0.5;" d="M379.18,86.269H110.43c-4.82,0-8.77,3.94-8.77,8.76v311.72c0,4.82,3.95,8.76,8.77,8.76h268.75
						c4.82,0,8.76-3.94,8.76-8.76V95.029C387.94,90.209,384,86.269,379.18,86.269z M218.82,152.609h131.83v222.61H218.82V152.609z"
						/>
				</g>
				<g>
					<path style="fill:#407BFF;" d="M376.85,86.269H108.1c-4.82,0-8.77,3.94-8.77,8.76v311.72c0,4.82,3.95,8.76,8.77,8.76h268.75
						c4.81,0,8.76-3.94,8.76-8.76V95.029C385.61,90.209,381.66,86.269,376.85,86.269z M218.82,152.609h131.83v222.61H218.82V152.609
						z"/>
					<path style="opacity:0.2;" d="M376.85,86.269H108.1c-4.82,0-8.77,3.94-8.77,8.76v311.72c0,4.82,3.95,8.76,8.77,8.76h268.75
						c4.81,0,8.76-3.94,8.76-8.76V95.029C385.61,90.209,381.66,86.269,376.85,86.269z M218.82,152.609h131.83v222.61H218.82V152.609
						z"/>
				</g>
				<path style="fill:#407BFF;" d="M99.33,108.929v297.82c0,4.82,3.95,8.76,8.77,8.76h268.75c4.81,0,8.76-3.94,8.76-8.76v-297.82
					H99.33z M218.82,152.609h131.83v222.61H218.82V152.609z"/>
				<path style="opacity:0.6;fill:#FFFFFF;" d="M99.33,108.929v297.82c0,4.82,3.95,8.76,8.77,8.76h268.75
					c4.81,0,8.76-3.94,8.76-8.76v-297.82H99.33z M218.82,152.609h131.83v222.61H218.82V152.609z"/>
				<path style="fill:#FFFFFF;" d="M100.95,120.579v283.28h283.04v-283.28H100.95z M350.65,375.219H218.82v-222.61h131.83V375.219z"
					/>
				<circle style="opacity:0.76;fill:#407BFF;" cx="366.384" cy="97.662" r="4.66"/>
				<circle style="opacity:0.76;fill:#407BFF;" cx="349.872" cy="97.662" r="4.66"/>
				<path style="opacity:0.76;fill:#407BFF;" d="M328.699,97.662c0,2.574,2.086,4.66,4.66,4.66c2.574,0,4.66-2.087,4.66-4.66
					c0-2.574-2.086-4.66-4.66-4.66C330.786,93.002,328.699,95.089,328.699,97.662z"/>
				
					<rect x="99.334" y="108.342" transform="matrix(-1 -1.224647e-16 1.224647e-16 -1 484.9419 217.8491)" style="fill:#407BFF;" width="286.273" height="1.165"/>
				<g>
					<path style="fill:#407BFF;" d="M391.44,142.919h-1v-7h1V142.919z M391.44,129.833h-1V107h1V129.833z"/>
					<path style="opacity:0.4;" d="M391.44,142.919h-1v-7h1V142.919z M391.44,129.833h-1V107h1V129.833z"/>
				</g>
			</g>
			<g>
				
					<rect x="148.03" y="200.771" transform="matrix(-1 -1.224647e-16 1.224647e-16 -1 324.2468 415.5492)" style="fill:#407BFF;" width="28.187" height="14.007"/>
				
					<rect x="148.03" y="200.771" transform="matrix(-1 -1.224647e-16 1.224647e-16 -1 324.2468 415.5492)" style="opacity:0.6;fill:#FFFFFF;" width="28.187" height="14.007"/>
			</g>
			<g>
				
					<rect x="127.896" y="293.263" transform="matrix(-1 -1.224647e-16 1.224647e-16 -1 307.9483 600.5319)" style="fill:#407BFF;" width="52.155" height="14.007"/>
				
					<rect x="127.896" y="293.263" transform="matrix(-1 -1.224647e-16 1.224647e-16 -1 307.9483 600.5319)" style="opacity:0.6;fill:#FFFFFF;" width="52.155" height="14.007"/>
			</g>
			<g>
				<g>
					
						<rect x="81" y="131.403" transform="matrix(-1 -1.224647e-16 1.224647e-16 -1 269.8722 276.8122)" style="fill:#407BFF;" width="107.872" height="14.007"/>
					
						<rect x="81" y="131.403" transform="matrix(-1 -1.224647e-16 1.224647e-16 -1 269.8722 276.8122)" style="opacity:0.6;fill:#FFFFFF;" width="107.872" height="14.007"/>
				</g>
				<g>
					
						<rect x="81" y="154.525" transform="matrix(-1 -1.224647e-16 1.224647e-16 -1 249.1635 323.0579)" style="fill:#407BFF;" width="87.163" height="14.007"/>
					
						<rect x="81" y="154.525" transform="matrix(-1 -1.224647e-16 1.224647e-16 -1 249.1635 323.0579)" style="opacity:0.6;fill:#FFFFFF;" width="87.163" height="14.007"/>
				</g>
				<g>
					
						<rect x="81" y="177.648" transform="matrix(-1 -1.224647e-16 1.224647e-16 -1 261.0518 369.3036)" style="fill:#407BFF;" width="99.052" height="14.007"/>
					
						<rect x="81" y="177.648" transform="matrix(-1 -1.224647e-16 1.224647e-16 -1 261.0518 369.3036)" style="opacity:0.6;fill:#FFFFFF;" width="99.052" height="14.007"/>
				</g>
				<g>
					
						<rect x="81" y="200.771" transform="matrix(-1 -1.224647e-16 1.224647e-16 -1 217.324 415.5492)" style="fill:#407BFF;" width="55.324" height="14.007"/>
					
						<rect x="81" y="200.771" transform="matrix(-1 -1.224647e-16 1.224647e-16 -1 217.324 415.5492)" style="opacity:0.6;fill:#FFFFFF;" width="55.324" height="14.007"/>
				</g>
				<g>
					
						<rect x="81" y="223.894" transform="matrix(-1 -1.224647e-16 1.224647e-16 -1 261.0518 461.7949)" style="fill:#407BFF;" width="99.052" height="14.007"/>
					
						<rect x="81" y="223.894" transform="matrix(-1 -1.224647e-16 1.224647e-16 -1 261.0518 461.7949)" style="opacity:0.6;fill:#FFFFFF;" width="99.052" height="14.007"/>
				</g>
				<g>
					
						<rect x="81" y="247.017" transform="matrix(-1 -1.224647e-16 1.224647e-16 -1 269.8722 508.0406)" style="fill:#407BFF;" width="107.872" height="14.007"/>
					
						<rect x="81" y="247.017" transform="matrix(-1 -1.224647e-16 1.224647e-16 -1 269.8722 508.0406)" style="opacity:0.6;fill:#FFFFFF;" width="107.872" height="14.007"/>
				</g>
				<g>
					
						<rect x="81" y="270.14" transform="matrix(-1 -1.224647e-16 1.224647e-16 -1 238.0421 554.2862)" style="fill:#407BFF;" width="76.042" height="14.007"/>
					
						<rect x="81" y="270.14" transform="matrix(-1 -1.224647e-16 1.224647e-16 -1 238.0421 554.2862)" style="opacity:0.6;fill:#FFFFFF;" width="76.042" height="14.007"/>
				</g>
				<g>
					
						<rect x="81" y="293.263" transform="matrix(-1 -1.224647e-16 1.224647e-16 -1 197.1905 600.5319)" style="fill:#407BFF;" width="35.19" height="14.007"/>
					
						<rect x="81" y="293.263" transform="matrix(-1 -1.224647e-16 1.224647e-16 -1 197.1905 600.5319)" style="opacity:0.6;fill:#FFFFFF;" width="35.19" height="14.007"/>
				</g>
				<g>
					<g>
						
							<ellipse transform="matrix(0.1654 -0.9862 0.9862 0.1654 -261.3472 393.0659)" style="fill:#407BFF;" cx="101.57" cy="350.95" rx="23.903" ry="23.903"/>
						
							<ellipse transform="matrix(0.1654 -0.9862 0.9862 0.1654 -261.3472 393.0659)" style="opacity:0.6;fill:#FFFFFF;" cx="101.57" cy="350.95" rx="23.903" ry="23.903"/>
					</g>
					<g>
						<path style="fill:#FFFFFF;" d="M104.011,346.787c-5.678-1.735-9.197-7.914-9.197-7.914s-1.798-0.102-1.883,1.522
							c-0.149,2.854,1.403,4.913,2.355,5.9l-2.73-0.154c-0.973-0.055-1.948,0.048-2.887,0.305l-0.906,0.248
							c-1.563,0.428-2.501,2.023-2.116,3.597l1.299,5.307c0.415,1.697,1.485,3.16,2.976,4.07c1.316,0.803,2.869,1.121,4.394,0.898
							c2.781-0.406,7.109-1.041,7.859-1.172v0l1.979-0.167l0.672-11.905L104.011,346.787z"/>
						<path style="fill:#407BFF;" d="M112.895,360.825h-7.646c-0.595,0-1.081-0.486-1.081-1.081v-13.522
							c0-0.595,0.486-1.081,1.081-1.081h7.646c0.595,0,1.081,0.486,1.081,1.081v13.522
							C113.976,360.338,113.489,360.825,112.895,360.825z"/>
					</g>
				</g>
				<g>
					<g>
						<g>
							
								<ellipse transform="matrix(0.7071 -0.7071 0.7071 0.7071 -200.6642 217.4545)" style="fill:#407BFF;" cx="162.159" cy="350.95" rx="23.903" ry="23.903"/>
						</g>
						
							<ellipse transform="matrix(0.7071 -0.7071 0.7071 0.7071 -200.6642 217.4545)" style="opacity:0.6;fill:#FFFFFF;" cx="162.159" cy="350.95" rx="23.903" ry="23.903"/>
					</g>
					<path style="fill:#407BFF;" d="M174.066,342.403c-3.288-3.288-8.619-3.288-11.907,0c-3.288-3.288-8.619-3.288-11.907,0
						c-3.288,3.288-3.288,8.619,0,11.907l11.907,11.907l11.907-11.907C177.354,351.022,177.354,345.691,174.066,342.403z"/>
				</g>
			</g>
		</g>
		<path style="fill:#E4897B;" d="M386.541,219.485l-0.078,5.385c-0.004,0.247,0.072,0.488,0.215,0.689l1.946,2.732l0.887-8.526
			l-0.958-1.046C387.846,217.946,386.556,218.437,386.541,219.485z"/>
		<g>
			<path style="fill:#407BFF;" d="M207.75,142.919v241.99h152.58v-241.99H207.75z M350.65,375.219H218.82v-222.61h131.83V375.219z"
				/>
			<path style="opacity:0.8;fill:#FFFFFF;" d="M207.75,142.919v241.99h152.58v-241.99H207.75z M350.65,375.219H218.82v-222.61
				h131.83V375.219z"/>
		</g>
	</g>
</g>
</svg>
